<svg version="1.1" id="Слой_1" xmlns="http://www.w3.org/2000/svg" x="0" y="0" viewBox="0 0 100 100" xml:space="preserve"><style>.st1{fill:#c47b47}</style><linearGradient id="SVGID_1_" gradientUnits="userSpaceOnUse" x1="17.706" y1="61.805" x2="32.571" y2="76.67"><stop offset=".006" stop-color="#541513"/><stop offset=".084" stop-color="#8d5027"/><stop offset=".382" stop-color="#cb9552"/><stop offset=".562" stop-color="#fff2db"/><stop offset=".803" stop-color="#d7b189"/><stop offset=".916" stop-color="#ab6c2e"/><stop offset=".955" stop-color="#9c530d"/></linearGradient><path d="M40.2 69c1.4-1.8 2.3-4 2.3-6.5C42.5 56.7 37.8 52 32 52c-3.2 0-6 1.4-7.9 3.6L3.5 76l15.2 14.5 19.7-19.8c.7-.5 1.3-1.1 1.8-1.7z" fill="url(#SVGID_1_)"/><circle class="st1" cx="10.9" cy="83.5" r="10.5"/><linearGradient id="SVGID_2_" gradientUnits="userSpaceOnUse" x1="46.495" y1="61.805" x2="61.36" y2="76.67"><stop offset=".006" stop-color="#541513"/><stop offset=".084" stop-color="#8d5027"/><stop offset=".382" stop-color="#cb9552"/><stop offset=".562" stop-color="#fff2db"/><stop offset=".803" stop-color="#d7b189"/><stop offset=".916" stop-color="#ab6c2e"/><stop offset=".955" stop-color="#9c530d"/></linearGradient><path d="M69 69c1.4-1.8 2.3-4 2.3-6.5 0-5.8-4.7-10.5-10.5-10.5-3.2 0-6 1.4-7.9 3.6L32.3 76l15.2 14.5 19.7-19.8c.7-.5 1.2-1.1 1.8-1.7z" fill="url(#SVGID_2_)"/><circle class="st1" cx="39.7" cy="83.5" r="10.5"/><linearGradient id="SVGID_3_" gradientUnits="userSpaceOnUse" x1="75.284" y1="61.805" x2="90.149" y2="76.67"><stop offset=".006" stop-color="#541513"/><stop offset=".084" stop-color="#8d5027"/><stop offset=".382" stop-color="#cb9552"/><stop offset=".562" stop-color="#fff2db"/><stop offset=".803" stop-color="#d7b189"/><stop offset=".916" stop-color="#ab6c2e"/><stop offset=".955" stop-color="#9c530d"/></linearGradient><path d="M97.7 69c1.4-1.8 2.3-4 2.3-6.5 0-5.8-4.7-10.5-10.5-10.5-3.2 0-6 1.4-7.9 3.6L61.1 76l15.2 14.5L96 70.7c.7-.5 1.2-1.1 1.7-1.7z" fill="url(#SVGID_3_)"/><circle class="st1" cx="68.5" cy="83.5" r="10.5"/><linearGradient id="SVGID_4_" gradientUnits="userSpaceOnUse" x1="32.101" y1="35.895" x2="46.965" y2="50.76"><stop offset=".006" stop-color="#541513"/><stop offset=".084" stop-color="#8d5027"/><stop offset=".382" stop-color="#cb9552"/><stop offset=".562" stop-color="#fff2db"/><stop offset=".803" stop-color="#d7b189"/><stop offset=".916" stop-color="#ab6c2e"/><stop offset=".955" stop-color="#9c530d"/></linearGradient><path d="M54.6 43.1c1.4-1.8 2.3-4 2.3-6.5 0-5.8-4.7-10.5-10.5-10.5-3.2 0-6 1.4-7.9 3.6L17.9 50.1l15.2 14.5 19.7-19.8c.7-.5 1.3-1.1 1.8-1.7z" fill="url(#SVGID_4_)"/><circle class="st1" cx="25.3" cy="57.6" r="10.5"/><linearGradient id="SVGID_5_" gradientUnits="userSpaceOnUse" x1="47.823" y1="13.884" x2="62.688" y2="28.748"><stop offset=".006" stop-color="#541513"/><stop offset=".084" stop-color="#8d5027"/><stop offset=".382" stop-color="#cb9552"/><stop offset=".562" stop-color="#fff2db"/><stop offset=".803" stop-color="#d7b189"/><stop offset=".916" stop-color="#ab6c2e"/><stop offset=".955" stop-color="#9c530d"/></linearGradient><path d="M70.3 21c1.4-1.8 2.3-4 2.3-6.5C72.5 8.7 67.8 4 62 4c-3.2 0-6 1.4-7.9 3.6L33.6 28.1l15.2 14.5 19.7-19.8c.7-.5 1.3-1.1 1.8-1.8z" fill="url(#SVGID_5_)"/><circle class="st1" cx="41" cy="35.6" r="10.5"/><linearGradient id="SVGID_6_" gradientUnits="userSpaceOnUse" x1="64.034" y1="35.895" x2="78.899" y2="50.76"><stop offset=".006" stop-color="#541513"/><stop offset=".084" stop-color="#8d5027"/><stop offset=".382" stop-color="#cb9552"/><stop offset=".562" stop-color="#fff2db"/><stop offset=".803" stop-color="#d7b189"/><stop offset=".916" stop-color="#ab6c2e"/><stop offset=".955" stop-color="#9c530d"/></linearGradient><path d="M86.5 43.1c1.4-1.8 2.3-4 2.3-6.5C88.7 30.8 84 26 78.2 26c-3.2 0-6 1.4-7.9 3.6L49.8 50.1 65 64.6l19.7-19.8c.7-.5 1.3-1.1 1.8-1.7z" fill="url(#SVGID_6_)"/><circle class="st1" cx="57.2" cy="57.6" r="10.5"/></svg>