<svg xmlns="http://www.w3.org/2000/svg" viewBox="0 0 100 100"><radialGradient id="a" cx="18.021" cy="66.763" r="33.586" gradientUnits="userSpaceOnUse"><stop offset=".006" stop-color="#f6fcff"/><stop offset=".841" stop-color="#ebe4cb"/><stop offset="1" stop-color="#b8b5a0"/></radialGradient><path d="M46.3 77.6c0 11.2-9.1 20.3-20.3 20.3S5.8 88.8 5.8 77.6 14.8 47 26 47s20.3 19.4 20.3 30.6z" fill-rule="evenodd" clip-rule="evenodd" fill="url(#a)" stroke="#b8b8b8" stroke-width="1.549" stroke-miterlimit="10"/><radialGradient id="b" cx="64.738" cy="66.763" r="33.586" gradientUnits="userSpaceOnUse"><stop offset=".006" stop-color="#f6fcff"/><stop offset=".841" stop-color="#ebe4cb"/><stop offset="1" stop-color="#b8b5a0"/></radialGradient><path d="M93 77.6c0 11.2-9.1 20.3-20.3 20.3s-20.3-9.1-20.3-20.3S61.5 47 72.7 47 93 66.4 93 77.6z" fill-rule="evenodd" clip-rule="evenodd" fill="url(#b)" stroke="#b8b8b8" stroke-width="1.549" stroke-miterlimit="10"/><radialGradient id="c" cx="40.992" cy="21.337" r="33.586" gradientUnits="userSpaceOnUse"><stop offset=".006" stop-color="#f6fcff"/><stop offset=".841" stop-color="#ebe4cb"/><stop offset="1" stop-color="#b8b5a0"/></radialGradient><path d="M69.3 32.2c0 11.2-9.1 20.3-20.3 20.3s-20.3-9.1-20.3-20.3S37.8 1.6 49 1.6 69.3 21 69.3 32.2z" fill-rule="evenodd" clip-rule="evenodd" fill="url(#c)" stroke="#b8b8b8" stroke-width="1.549" stroke-miterlimit="10"/></svg>