<svg xmlns="http://www.w3.org/2000/svg" viewBox="0 0 100 100"><linearGradient id="a" gradientUnits="userSpaceOnUse" x1="-460.081" y1="79.386" x2="-460.081" y2="50.508" gradientTransform="scale(-1 1) rotate(6.701 11.05 3458.439)"><stop offset="0" stop-color="#b3b3b3"/><stop offset=".287" stop-color="#ccc"/><stop offset=".496" stop-color="#cecece"/><stop offset=".576" stop-color="#d5d5d5"/><stop offset=".633" stop-color="#e1e1e1"/><stop offset=".679" stop-color="#f2f2f2"/><stop offset=".705" stop-color="#fff"/><stop offset=".739" stop-color="#f5f5f5"/><stop offset=".816" stop-color="#e4e4e4"/><stop offset=".9" stop-color="#d9d9d9"/><stop offset="1" stop-color="#d6d6d6"/></linearGradient><path d="M65.4 18.1c7.6-.9 14.5 4.6 15.4 12.1l.1 1.1c.9 7.6-4.6 14.5-12.1 15.4l-26.2 3.1-3.4-28.7 26.2-3z" fill="url(#a)"/><linearGradient id="b" gradientUnits="userSpaceOnUse" x1="-440.707" y1="96.332" x2="-413.072" y2="48.467" gradientTransform="scale(-1 1) rotate(6.701 11.05 3458.439)"><stop offset="0" stop-color="#787878"/><stop offset=".287" stop-color="#7a7a7a"/><stop offset=".396" stop-color="#818181"/><stop offset=".475" stop-color="#8c8d8d"/><stop offset=".539" stop-color="#9d9e9e"/><stop offset=".595" stop-color="#b3b4b4"/><stop offset=".644" stop-color="#cdcfd0"/><stop offset=".688" stop-color="#eceff0"/><stop offset=".705" stop-color="#fbfeff"/><stop offset=".739" stop-color="#f2f4f5"/><stop offset=".816" stop-color="#e2e3e4"/><stop offset=".9" stop-color="#d9d9d9"/><stop offset="1" stop-color="#d6d6d6"/></linearGradient><path d="M.6 40.8l-.1-1.1c-.9-7.6 4.6-14.5 12.1-15.4l26.5-3.1 3.4 28.7L16 53C8.4 53.9 1.5 48.4.6 40.8z" fill="url(#b)"/><linearGradient id="c" gradientUnits="userSpaceOnUse" x1="-419.652" y1="79.386" x2="-419.652" y2="50.508" gradientTransform="scale(-1 1) rotate(6.701 11.05 3458.439)"><stop offset="0" stop-color="#ab0004"/><stop offset=".185" stop-color="#cc0005"/><stop offset=".416" stop-color="#cd0207"/><stop offset=".504" stop-color="#d1090d"/><stop offset=".568" stop-color="#d81519"/><stop offset=".619" stop-color="#e22629"/><stop offset=".663" stop-color="#ee3c3e"/><stop offset=".703" stop-color="#fe5757"/><stop offset=".705" stop-color="#ff5959"/><stop offset=".709" stop-color="#fe5657"/><stop offset=".759" stop-color="#ef373a"/><stop offset=".813" stop-color="#e41f23"/><stop offset=".868" stop-color="#dc0e14"/><stop offset=".928" stop-color="#d8030a"/><stop offset="1" stop-color="#d60007"/></linearGradient><path d="M.6 40.8l-.1-1.1c-.9-7.6 4.6-14.5 12.1-15.4l26.5-3.1 3.4 28.7L16 53C8.4 53.9 1.5 48.4.6 40.8z" fill="url(#c)"/><linearGradient id="d" gradientUnits="userSpaceOnUse" x1="4.52" y1="166.53" x2="4.52" y2="137.651" gradientTransform="rotate(-21.292 -205.003 9.142)"><stop offset="0" stop-color="#b3b3b3"/><stop offset=".287" stop-color="#ccc"/><stop offset=".496" stop-color="#cecece"/><stop offset=".576" stop-color="#d5d5d5"/><stop offset=".633" stop-color="#e1e1e1"/><stop offset=".679" stop-color="#f2f2f2"/><stop offset=".705" stop-color="#fff"/><stop offset=".739" stop-color="#f5f5f5"/><stop offset=".816" stop-color="#e4e4e4"/><stop offset=".9" stop-color="#d9d9d9"/><stop offset="1" stop-color="#d6d6d6"/></linearGradient><path d="M31 55.1c-7.1 2.8-10.7 10.8-7.9 17.9l.4 1.1c2.8 7.1 10.8 10.7 17.9 7.9L66 72.4 55.7 45.5 31 55.1z" fill="url(#d)"/><linearGradient id="e" gradientUnits="userSpaceOnUse" x1="23.894" y1="183.475" x2="51.529" y2="135.61" gradientTransform="rotate(-21.292 -205.003 9.142)"><stop offset="0" stop-color="#787878"/><stop offset=".287" stop-color="#7a7a7a"/><stop offset=".396" stop-color="#818181"/><stop offset=".475" stop-color="#8c8d8d"/><stop offset=".539" stop-color="#9d9e9e"/><stop offset=".595" stop-color="#b3b4b4"/><stop offset=".644" stop-color="#cdcfd0"/><stop offset=".688" stop-color="#eceff0"/><stop offset=".705" stop-color="#fbfeff"/><stop offset=".739" stop-color="#f2f4f5"/><stop offset=".816" stop-color="#e2e3e4"/><stop offset=".9" stop-color="#d9d9d9"/><stop offset="1" stop-color="#d6d6d6"/></linearGradient><path d="M98.9 44.7l-.4-1.1c-2.8-7.1-10.8-10.7-17.9-7.9l-24.9 9.7 10.5 26.9L91 62.7c7.1-2.8 10.7-10.8 7.9-18z" fill="url(#e)"/><linearGradient id="f" gradientUnits="userSpaceOnUse" x1="44.95" y1="166.53" x2="44.95" y2="137.651" gradientTransform="rotate(-21.292 -205.003 9.142)"><stop offset="0" stop-color="#ab0004"/><stop offset=".185" stop-color="#cc0005"/><stop offset=".416" stop-color="#cd0207"/><stop offset=".504" stop-color="#d1090d"/><stop offset=".568" stop-color="#d81519"/><stop offset=".619" stop-color="#e22629"/><stop offset=".663" stop-color="#ee3c3e"/><stop offset=".703" stop-color="#fe5757"/><stop offset=".705" stop-color="#ff5959"/><stop offset=".709" stop-color="#fe5657"/><stop offset=".759" stop-color="#ef373a"/><stop offset=".813" stop-color="#e41f23"/><stop offset=".868" stop-color="#dc0e14"/><stop offset=".928" stop-color="#d8030a"/><stop offset="1" stop-color="#d60007"/></linearGradient><path d="M98.9 44.7l-.4-1.1c-2.8-7.1-10.8-10.7-17.9-7.9l-24.9 9.7 10.5 26.9L91 62.7c7.1-2.8 10.7-10.8 7.9-18z" fill="url(#f)"/></svg>