<svg version="1.1" id="Слой_1" xmlns="http://www.w3.org/2000/svg" x="0" y="0" viewBox="0 0 100 100" xml:space="preserve"><style>.st0{fill:#333}</style><path class="st0" d="M3.1 79.3L6 81.5 97.7 2.3 94.8 0 3.1 21.2zm1.5 19.6L6 100l91.7-32.8-1.4-1.2L4.6 87.2z"/><path d="M6 81.5l91.7-21.2V2.2L6 23.4zM6 100l91.7-21.2V67.1L6 88.3z" fill="#5e5d5b"/><linearGradient id="SVGID_1_" gradientUnits="userSpaceOnUse" x1="-1374.415" y1="407.888" x2="-1309.2" y2="342.673" gradientTransform="matrix(-1 .231 0 1 -1290 -25.658)"><stop offset=".006" stop-color="#3d3d3d"/><stop offset=".231" stop-color="#404040"/><stop offset=".369" stop-color="#484848"/><stop offset=".483" stop-color="#565656"/><stop offset=".585" stop-color="#6a6a6b"/><stop offset=".677" stop-color="#848485"/><stop offset=".733" stop-color="#979899"/><stop offset="1"/></linearGradient><path fill="url(#SVGID_1_)" d="M10.1 72.8l83.4-19.2v-47L10.1 25.8z"/><path fill="#f2f2f2" d="M46.8 69.5l10-2.3V64l-10 2.3z"/><ellipse transform="rotate(-48.295 90.302 74.542)" class="st0" cx="90.3" cy="74.5" rx="3.8" ry="3"/><ellipse transform="rotate(-48.295 13.404 92.304)" class="st0" cx="13.4" cy="92.3" rx="3.8" ry="3"/><ellipse transform="rotate(-48.295 23.372 90.002)" class="st0" cx="23.4" cy="90" rx="3.8" ry="3"/><ellipse transform="rotate(-48.295 80.334 76.845)" class="st0" cx="80.3" cy="76.8" rx="3.8" ry="3"/><ellipse transform="rotate(-48.295 70.366 79.147)" class="st0" cx="70.4" cy="79.2" rx="3.8" ry="3"/><ellipse transform="rotate(-48.295 33.34 87.7)" class="st0" cx="33.3" cy="87.7" rx="3.8" ry="3"/></svg>