<svg version="1.1" id="Слой_1" xmlns="http://www.w3.org/2000/svg" x="0" y="0" viewBox="0 0 100 100" xml:space="preserve"><style>.st3{fill:#eb5f6d}.st12{fill:#ffff72}.st21{fill:#4892f7}</style><path fill="#be2a2e" d="M27.5 45.7l-18 15.6 43.6 15.6 18.1-15.6z"/><path d="M53.1 88L9.5 72.4V61.3l43.6 15.6zm18.1-15.6L53.1 88V76.9l18.1-15.6z" fill="#b30300"/><linearGradient id="SVGID_1_" gradientUnits="userSpaceOnUse" x1="54.755" y1="59.994" x2="63.841" y2="59.994"><stop offset="0" stop-color="#bc0e00"/><stop offset=".323" stop-color="#ff6763"/><stop offset="1" stop-color="#af0000"/></linearGradient><path d="M63.8 56.3h-9.1v4.2c0 1.8 2 3.3 4.5 3.3s4.5-1.5 4.5-3.3v-4.2z" fill="url(#SVGID_1_)"/><ellipse class="st3" cx="59.3" cy="56.3" rx="4.5" ry="3.3"/><linearGradient id="SVGID_2_" gradientUnits="userSpaceOnUse" x1="41.667" y1="55.383" x2="50.754" y2="55.383"><stop offset="0" stop-color="#bc0e00"/><stop offset=".323" stop-color="#ff6763"/><stop offset="1" stop-color="#af0000"/></linearGradient><path d="M50.8 51.7h-9.1v4.2c0 1.8 2 3.3 4.5 3.3s4.5-1.5 4.5-3.3v-4.2z" fill="url(#SVGID_2_)"/><ellipse class="st3" cx="46.2" cy="51.7" rx="4.5" ry="3.3"/><linearGradient id="SVGID_3_" gradientUnits="userSpaceOnUse" x1="28.579" y1="50.771" x2="37.666" y2="50.771"><stop offset="0" stop-color="#bc0e00"/><stop offset=".323" stop-color="#ff6763"/><stop offset="1" stop-color="#af0000"/></linearGradient><path d="M37.7 47h-9.1v4.2c0 1.8 2 3.3 4.5 3.3s4.5-1.5 4.5-3.3V47z" fill="url(#SVGID_3_)"/><ellipse class="st3" cx="33.1" cy="47.1" rx="4.5" ry="3.3"/><linearGradient id="SVGID_4_" gradientUnits="userSpaceOnUse" x1="44.854" y1="68.402" x2="53.941" y2="68.402"><stop offset="0" stop-color="#bc0e00"/><stop offset=".323" stop-color="#ff6763"/><stop offset="1" stop-color="#af0000"/></linearGradient><path d="M53.9 64.7h-9.1v4.2c0 1.8 2 3.3 4.5 3.3s4.5-1.5 4.5-3.3v-4.2z" fill="url(#SVGID_4_)"/><ellipse class="st3" cx="49.4" cy="64.7" rx="4.5" ry="3.3"/><linearGradient id="SVGID_5_" gradientUnits="userSpaceOnUse" x1="31.766" y1="63.791" x2="40.853" y2="63.791"><stop offset="0" stop-color="#bc0e00"/><stop offset=".323" stop-color="#ff6763"/><stop offset="1" stop-color="#af0000"/></linearGradient><path d="M40.9 60.1h-9.1v4.2c0 1.8 2 3.3 4.5 3.3s4.5-1.5 4.5-3.3v-4.2z" fill="url(#SVGID_5_)"/><ellipse class="st3" cx="36.3" cy="60.1" rx="4.5" ry="3.3"/><linearGradient id="SVGID_6_" gradientUnits="userSpaceOnUse" x1="18.679" y1="59.18" x2="27.765" y2="59.18"><stop offset="0" stop-color="#bc0e00"/><stop offset=".323" stop-color="#ff6763"/><stop offset="1" stop-color="#af0000"/></linearGradient><path d="M27.8 55.5h-9.1v4.2c0 1.8 2 3.3 4.5 3.3s4.5-1.5 4.5-3.3v-4.2z" fill="url(#SVGID_6_)"/><ellipse class="st3" cx="23.2" cy="55.5" rx="4.5" ry="3.3"/><path fill="#ffd033" d="M56.1 30.1l-18 15.6 43.6 15.6 18.1-15.6z"/><path d="M81.7 72.4L38.1 56.8V45.7l43.6 15.6zm18.1-15.6L81.7 72.4V61.3l18.1-15.6z" fill="#fba900"/><linearGradient id="SVGID_7_" gradientUnits="userSpaceOnUse" x1="83.371" y1="44.397" x2="92.458" y2="44.397"><stop offset="0" stop-color="#ffb400"/><stop offset=".323" stop-color="#ffff68"/><stop offset="1" stop-color="#f79d00"/></linearGradient><path d="M92.5 40.7h-9.1v4.2c0 1.8 2 3.3 4.5 3.3s4.5-1.5 4.5-3.3v-4.2z" fill="url(#SVGID_7_)"/><ellipse class="st12" cx="87.9" cy="40.7" rx="4.5" ry="3.3"/><linearGradient id="SVGID_8_" gradientUnits="userSpaceOnUse" x1="70.284" y1="39.786" x2="79.37" y2="39.786"><stop offset="0" stop-color="#ffb400"/><stop offset=".323" stop-color="#ffff68"/><stop offset="1" stop-color="#f79d00"/></linearGradient><path d="M79.4 36.1h-9.1v4.2c0 1.8 2 3.3 4.5 3.3s4.5-1.5 4.5-3.3v-4.2z" fill="url(#SVGID_8_)"/><ellipse class="st12" cx="74.8" cy="36.1" rx="4.5" ry="3.3"/><linearGradient id="SVGID_9_" gradientUnits="userSpaceOnUse" x1="57.196" y1="35.175" x2="66.283" y2="35.175"><stop offset="0" stop-color="#ffb400"/><stop offset=".323" stop-color="#ffff68"/><stop offset="1" stop-color="#f79d00"/></linearGradient><path d="M66.3 31.4h-9.1v4.2c0 1.8 2 3.3 4.5 3.3s4.5-1.5 4.5-3.3v-4.2z" fill="url(#SVGID_9_)"/><ellipse class="st12" cx="61.7" cy="31.5" rx="4.5" ry="3.3"/><linearGradient id="SVGID_10_" gradientUnits="userSpaceOnUse" x1="73.471" y1="52.806" x2="82.558" y2="52.806"><stop offset="0" stop-color="#ffb400"/><stop offset=".323" stop-color="#ffff68"/><stop offset="1" stop-color="#f79d00"/></linearGradient><path d="M82.6 49.1h-9.1v4.2c0 1.8 2 3.3 4.5 3.3s4.5-1.5 4.5-3.3v-4.2z" fill="url(#SVGID_10_)"/><ellipse class="st12" cx="78" cy="49.1" rx="4.5" ry="3.3"/><linearGradient id="SVGID_11_" gradientUnits="userSpaceOnUse" x1="60.383" y1="48.194" x2="69.47" y2="48.194"><stop offset="0" stop-color="#ffb400"/><stop offset=".323" stop-color="#ffff68"/><stop offset="1" stop-color="#f79d00"/></linearGradient><path d="M69.5 44.5h-9.1v4.2c0 1.8 2 3.3 4.5 3.3s4.5-1.5 4.5-3.3v-4.2z" fill="url(#SVGID_11_)"/><ellipse class="st12" cx="64.9" cy="44.5" rx="4.5" ry="3.3"/><linearGradient id="SVGID_12_" gradientUnits="userSpaceOnUse" x1="47.295" y1="43.583" x2="56.382" y2="43.583"><stop offset="0" stop-color="#ffb400"/><stop offset=".323" stop-color="#ffff68"/><stop offset="1" stop-color="#f79d00"/></linearGradient><path d="M56.4 39.9h-9.1v4.2c0 1.8 2 3.3 4.5 3.3s4.5-1.5 4.5-3.3v-4.2z" fill="url(#SVGID_12_)"/><ellipse class="st12" cx="51.8" cy="39.9" rx="4.5" ry="3.3"/><path fill="#1b5db8" d="M43.9 14.9l18 15.6-43.6 15.6L.2 30.5z"/><path d="M18.3 57.2l43.6-15.6V30.5L18.3 46.1zM.2 41.6l18.1 15.6V46.1L.2 30.5z" fill="#10366b"/><linearGradient id="SVGID_13_" gradientUnits="userSpaceOnUse" x1="46.356" y1="29.207" x2="55.443" y2="29.207" gradientTransform="matrix(-1 0 0 1 63 0)"><stop offset="0" stop-color="#19417a"/><stop offset=".323" stop-color="#629aed"/><stop offset="1" stop-color="#0c2a54"/></linearGradient><path d="M7.6 25.5h9.1v4.2c0 1.8-2 3.3-4.5 3.3s-4.5-1.5-4.5-3.3v-4.2z" fill="url(#SVGID_13_)"/><ellipse class="st21" cx="12.1" cy="25.5" rx="4.5" ry="3.3"/><linearGradient id="SVGID_14_" gradientUnits="userSpaceOnUse" x1="33.268" y1="24.596" x2="42.355" y2="24.596" gradientTransform="matrix(-1 0 0 1 63 0)"><stop offset="0" stop-color="#19417a"/><stop offset=".323" stop-color="#629aed"/><stop offset="1" stop-color="#0c2a54"/></linearGradient><path d="M20.6 20.9h9.1v4.2c0 1.8-2 3.3-4.5 3.3s-4.5-1.5-4.5-3.3v-4.2z" fill="url(#SVGID_14_)"/><ellipse class="st21" cx="25.2" cy="20.9" rx="4.5" ry="3.3"/><linearGradient id="SVGID_15_" gradientUnits="userSpaceOnUse" x1="20.18" y1="19.985" x2="29.267" y2="19.985" gradientTransform="matrix(-1 0 0 1 63 0)"><stop offset="0" stop-color="#19417a"/><stop offset=".323" stop-color="#629aed"/><stop offset="1" stop-color="#0c2a54"/></linearGradient><path d="M33.7 16.3h9.1v4.2c0 1.8-2 3.3-4.5 3.3s-4.5-1.5-4.5-3.3v-4.2z" fill="url(#SVGID_15_)"/><ellipse class="st21" cx="38.3" cy="16.3" rx="4.5" ry="3.3"/><linearGradient id="SVGID_16_" gradientUnits="userSpaceOnUse" x1="36.455" y1="37.616" x2="45.542" y2="37.616" gradientTransform="matrix(-1 0 0 1 63 0)"><stop offset="0" stop-color="#19417a"/><stop offset=".323" stop-color="#629aed"/><stop offset="1" stop-color="#0c2a54"/></linearGradient><path d="M17.5 33.9h9.1v4.2c0 1.8-2 3.3-4.5 3.3s-4.5-1.5-4.5-3.3v-4.2z" fill="url(#SVGID_16_)"/><ellipse class="st21" cx="22" cy="34" rx="4.5" ry="3.3"/><linearGradient id="SVGID_17_" gradientUnits="userSpaceOnUse" x1="23.367" y1="33.005" x2="32.454" y2="33.005" gradientTransform="matrix(-1 0 0 1 63 0)"><stop offset="0" stop-color="#19417a"/><stop offset=".323" stop-color="#629aed"/><stop offset="1" stop-color="#0c2a54"/></linearGradient><path d="M30.5 29.3h9.1v4.2c0 1.8-2 3.3-4.5 3.3s-4.5-1.5-4.5-3.3v-4.2z" fill="url(#SVGID_17_)"/><ellipse class="st21" cx="35.1" cy="29.3" rx="4.5" ry="3.3"/><linearGradient id="SVGID_18_" gradientUnits="userSpaceOnUse" x1="10.28" y1="28.393" x2="19.366" y2="28.393" gradientTransform="matrix(-1 0 0 1 63 0)"><stop offset="0" stop-color="#19417a"/><stop offset=".323" stop-color="#629aed"/><stop offset="1" stop-color="#0c2a54"/></linearGradient><path d="M43.6 24.7h9.1v4.2c0 1.8-2 3.3-4.5 3.3s-4.5-1.5-4.5-3.3v-4.2z" fill="url(#SVGID_18_)"/><ellipse class="st21" cx="48.2" cy="24.7" rx="4.5" ry="3.3"/></svg>