<svg version="1.1" id="Слой_1" xmlns="http://www.w3.org/2000/svg" x="0" y="0" viewBox="0 0 100 100" xml:space="preserve"><style>.st11{fill:#ffdde8}</style><linearGradient id="SVGID_1_" gradientUnits="userSpaceOnUse" x1="-150.369" y1="-43.561" x2="-150.369" y2="-51.16" gradientTransform="rotate(-49.648 15.253 -208.96)"><stop offset="0" stop-color="#ec977d"/><stop offset=".172" stop-color="#f0947b"/><stop offset=".321" stop-color="#edbaae"/><stop offset=".828" stop-color="#e37668"/><stop offset="1" stop-color="#d85b58"/></linearGradient><path d="M30.2 17.2l-2.6 5.6s.1 1.2 1.1 2c1 .9 2.2.8 2.2.8l5-3.4s.1 0 .1-.1c.3-.3-.8-1.7-2.4-3.1-1.6-1.4-3.1-2.2-3.4-1.8z" fill="url(#SVGID_1_)"/><linearGradient id="SVGID_2_" gradientUnits="userSpaceOnUse" x1="-203.449" y1="-151.867" x2="-203.449" y2="-171.848" gradientTransform="rotate(-63.199 73.395 -237.61)"><stop offset="0" stop-color="#d85b58"/><stop offset=".172" stop-color="#e37668"/><stop offset=".679" stop-color="#edbaae"/><stop offset=".828" stop-color="#f0947b"/><stop offset="1" stop-color="#ec977d"/></linearGradient><path d="M33 32s-4.8 5.8-9.9 16-6.2 16-6.2 16c-1.1 5.3-7.7 6.2-12.2 4-4.4-2.2-4.9-6.7-4-12.2 0 0 1-5.6 6.2-16s9.9-16 9.9-16c3.1-3.9 7.7-6.2 12.2-4 4.5 2.3 7.5 8.3 4 12.2z" fill="url(#SVGID_2_)"/><linearGradient id="SVGID_3_" gradientUnits="userSpaceOnUse" x1="-234.829" y1="-201.994" x2="-234.829" y2="-209.593" gradientTransform="rotate(-75.854 62.095 -224.015)"><stop offset="0" stop-color="#d85b58"/><stop offset=".172" stop-color="#e37668"/><stop offset=".679" stop-color="#edbaae"/><stop offset=".828" stop-color="#f0947b"/><stop offset="1" stop-color="#ec977d"/></linearGradient><path d="M10.1 72.6l-.1-6.2s-.6-1-1.9-1.3-2.3.3-2.3.3l-3.1 5.4s2-.4 3.9.1 3.5 1.7 3.5 1.7z" fill="url(#SVGID_3_)"/><linearGradient id="SVGID_4_" gradientUnits="userSpaceOnUse" x1="-238.215" y1="-201.994" x2="-238.215" y2="-209.593" gradientTransform="rotate(-75.854 62.095 -224.015)"><stop offset="0" stop-color="#ec977d"/><stop offset=".172" stop-color="#f0947b"/><stop offset=".321" stop-color="#edbaae"/><stop offset=".828" stop-color="#e37668"/><stop offset="1" stop-color="#d85b58"/></linearGradient><path d="M6.6 70.9c2 .5 3.6 1.3 3.5 1.7-.1.4-1.9.4-3.9-.1s-3.6-1.3-3.5-1.7 1.9-.5 3.9.1z" fill="url(#SVGID_4_)"/><linearGradient id="SVGID_5_" gradientUnits="userSpaceOnUse" x1="449.528" y1="-335.1" x2="449.528" y2="-342.699" gradientTransform="rotate(134.092 160.808 -230.96)"><stop offset="0" stop-color="#ec977d"/><stop offset=".172" stop-color="#f0947b"/><stop offset=".321" stop-color="#edbaae"/><stop offset=".828" stop-color="#e37668"/><stop offset="1" stop-color="#d85b58"/></linearGradient><path d="M38.1 56.3l3-5.4s0-1.2-1-2.1c-.9-.9-2.1-.9-2.1-.9L32.7 51s-.1 0-.1.1c-.3.3.6 1.8 2.2 3.2 1.5 1.4 3 2.3 3.3 2z" fill="url(#SVGID_5_)"/><linearGradient id="SVGID_6_" gradientUnits="userSpaceOnUse" x1="448.063" y1="-294.705" x2="448.063" y2="-314.686" gradientTransform="rotate(120.537 155.145 -249.537)"><stop offset="0" stop-color="#d85b58"/><stop offset=".172" stop-color="#e37668"/><stop offset=".679" stop-color="#edbaae"/><stop offset=".828" stop-color="#f0947b"/><stop offset="1" stop-color="#ec977d"/></linearGradient><path d="M36.2 41.3s5.1-5.4 11-15.3 7.3-15.6 7.3-15.6c1.5-5.2 8.1-5.7 12.4-3.2 4.3 2.5 4.4 7 3.2 12.4 0 0-1.3 5.5-7.3 15.6s-11 15.3-11 15.3c-3.4 3.7-8.1 5.7-12.4 3.2-4.2-2.6-6.9-8.7-3.2-12.4z" fill="url(#SVGID_6_)"/><linearGradient id="SVGID_7_" gradientUnits="userSpaceOnUse" x1="432.149" y1="-198.591" x2="432.149" y2="-206.19" gradientTransform="rotate(107.885 172.129 -231.74)"><stop offset="0" stop-color="#d85b58"/><stop offset=".172" stop-color="#e37668"/><stop offset=".679" stop-color="#edbaae"/><stop offset=".828" stop-color="#f0947b"/><stop offset="1" stop-color="#ec977d"/></linearGradient><path d="M61.8 2.3l-.3 6.2s.5 1 1.8 1.4 2.3-.1 2.3-.1L69 4.6s-2 .2-3.9-.4-3.3-1.9-3.3-1.9z" fill="url(#SVGID_7_)"/><linearGradient id="SVGID_8_" gradientUnits="userSpaceOnUse" x1="428.763" y1="-198.591" x2="428.763" y2="-206.19" gradientTransform="rotate(107.885 172.129 -231.74)"><stop offset="0" stop-color="#ec977d"/><stop offset=".172" stop-color="#f0947b"/><stop offset=".321" stop-color="#edbaae"/><stop offset=".828" stop-color="#e37668"/><stop offset="1" stop-color="#d85b58"/></linearGradient><path d="M65.1 4.3c-2-.6-3.5-1.5-3.4-2s1.9-.3 3.9.4c2 .6 3.5 1.5 3.4 2-.1.4-1.9.2-3.9-.4z" fill="url(#SVGID_8_)"/><linearGradient id="SVGID_9_" gradientUnits="userSpaceOnUse" x1="306.242" y1="-337.202" x2="306.242" y2="-351.217" gradientTransform="rotate(165.776 139.501 -148.373)"><stop offset="0" stop-color="#ec977d"/><stop offset=".172" stop-color="#f0947b"/><stop offset=".321" stop-color="#edbaae"/><stop offset=".828" stop-color="#e37668"/><stop offset="1" stop-color="#d85b58"/></linearGradient><path d="M22.4 90.6c.1 0 .1 0 .2-.1l9.7-5.6s1.1-1.9.5-4.2c-.6-2.4-2.5-3.5-2.5-3.5L19.1 77h-.2c-.8.2-.7 3.4.2 7.2 1.1 3.7 2.5 6.6 3.3 6.4z" fill="url(#SVGID_9_)"/><linearGradient id="SVGID_10_" gradientUnits="userSpaceOnUse" x1="300.206" y1="-328.014" x2="300.206" y2="-364.864" gradientTransform="rotate(152.22 128.873 -167.057)"><stop offset="0" stop-color="#d85b58"/><stop offset=".172" stop-color="#e37668"/><stop offset=".679" stop-color="#edbaae"/><stop offset=".828" stop-color="#f0947b"/><stop offset="1" stop-color="#ec977d"/></linearGradient><path d="M34.1 65.2s13.3-3.6 32.1-13.4c6.9-3.6 10.6-6.3 14.7-9.1 7-4.7 23.6 24.9 14.7 30.6-3.7 2.4-8.3 5.1-13.8 8-19 10-32.1 13.4-32.1 13.4-8.9 2.6-18.3 1.1-22.6-7-4.3-8-2.5-20.3 7-22.5z" fill="url(#SVGID_10_)"/><linearGradient id="SVGID_11_" gradientUnits="userSpaceOnUse" x1="77.374" y1="58.042" x2="99" y2="58.042"><stop offset="0" stop-color="#ac3015"/><stop offset=".172" stop-color="#b02d13"/><stop offset=".321" stop-color="#ad5346"/><stop offset=".828" stop-color="#a30f01"/><stop offset="1" stop-color="#980300"/></linearGradient><path d="M96.1 54.2c4.1 8.5 3.8 17-.6 19.1-4.4 2.1-11.2-3.1-15.3-11.5s-3.8-17 .6-19.1c4.4-2.1 11.2 3.1 15.3 11.5z" fill="url(#SVGID_11_)"/><ellipse transform="rotate(-27.896 90.253 51.826)" class="st11" cx="90.2" cy="51.8" rx="1.5" ry="2.8"/><ellipse transform="rotate(-27.896 89.395 65.916)" class="st11" cx="89.4" cy="65.9" rx="1.5" ry="2.8"/><ellipse transform="rotate(-26.182 82.79 49.188)" class="st11" cx="82.8" cy="49.2" rx="1.9" ry="3.6"/><ellipse transform="rotate(-26.13 88.807 58.056)" class="st11" cx="88.8" cy="58.1" rx="1.9" ry="3.6"/><ellipse transform="rotate(-26.208 94.615 62.965)" class="st11" cx="94.6" cy="63" rx="1.9" ry="3.6"/><ellipse transform="rotate(-26.5 83.046 58.724)" class="st11" cx="83.1" cy="58.7" rx="1.8" ry="3.4"/></svg>