<svg version="1.1" id="Слой_1" xmlns="http://www.w3.org/2000/svg" x="0" y="0" viewBox="0 0 100 100" xml:space="preserve"><style>.st2{fill:#2e4c69}.st4{fill:#eee}.st5{fill:#aeab9e}.st7{fill:#111}.st8{fill:#a7a7a7}.st9{fill:#ccc}</style><path d="M40.7 4.6l-1.2 6.5 9.4 15.4 2.9-.7L60 42.3l-2.6 1.5.8 2.6 4.3 4.2 2.7-1.6L83 66.2l-2.8 1.6.6.6.3.6-46.6 26.5-4.3-80.1L36 9.3l4.7-4.7m0-2.9c-.7 0-1.5.3-2 .8L34 7.1l-.1.1-5.8 6.1c-.5.6-.8 1.4-.8 2.2l4.3 80.1c.1 1 .6 1.9 1.5 2.4.4.2.9.4 1.4.4s1-.1 1.4-.4l46.6-26.5C83.5 71 84 70 84 69l.4-.3c.8-.5 1.3-1.3 1.4-2.2.1-.9-.2-1.8-.9-2.5L67.2 47c-.6-.5-1.3-.8-2-.8-.5 0-1 .1-1.5.4l-.8.4-1.9-1.9.5-.3c1.3-.8 1.8-2.4 1.2-3.8l-8.1-16.5c-.5-1-1.5-1.6-2.6-1.6-.2 0-.4 0-.7.1l-.9.2-7.7-12.6 1-5.4c.1-1.3-.5-2.6-1.7-3.2-.4-.2-.9-.3-1.3-.3zm0 5.9z" fill="#7daec9"/><linearGradient id="SVGID_1_" gradientUnits="userSpaceOnUse" x1="17.31" y1="44.053" x2="9.272" y2="57.975" gradientTransform="matrix(-1 0 0 1 45.277 0)"><stop offset="0" stop-color="#48829a"/><stop offset=".265" stop-color="#5c98ae"/><stop offset=".436" stop-color="#427d95"/><stop offset=".545" stop-color="#38728a"/><stop offset=".736" stop-color="#1d546e"/><stop offset=".755" stop-color="#1a516b"/><stop offset=".854" stop-color="#134c65"/><stop offset=".994" stop-color="#013e53"/><stop offset="1" stop-color="#003d52"/></linearGradient><path d="M20.2 49.1c.2 1.9 5.7 8.1 8.9 10 .1 0 .2.1.2.1.6.3-1.3 2.9-1 3h.1s1.3-.7 3.4-1.9c2.4-1.3-.5.4 3.1-1.8 0 0 .1 0 .1-.1 0 0 .1 0 .1-.1h.1c.1 0 .1-.1.1-.1h.1c3.6-2.2 3.4-2.2 3.9-2.6l.2-.2c.1 0 1.1-1 1.1-1 .4-.4.7-1 .9-1.7.1-.4.2-.9.2-1.4s0-.9-.1-1.4c-.3-1.6-1.1-3.3-2.2-4.7-.7-.9-1.5-1.5-2.4-2.1-.3-.1-.5-.3-.8-.4-.5-.2-1-.3-1.4-.3-.4 0-.7 0-1.3.1 0 0-1.9 0-6.1 2.1-6.7 3.5-6 3.4-6.8 3.9h-.1c-.3.2-.3.3-.3.6z" fill="url(#SVGID_1_)"/><path class="st2" d="M22.8 48.4l4.5 3.4 7.1-3.9 5-2.7c-.7-.9-1.6-1.7-2.5-2.3-.3-.1-.5-.3-.8-.4l-6.2 1.9-7.1 4z"/><linearGradient id="SVGID_2_" gradientUnits="userSpaceOnUse" x1="25.361" y1="48.823" x2="17.453" y2="62.519" gradientTransform="matrix(-1 0 0 1 45.277 0)"><stop offset="0" stop-color="#dcdede"/><stop offset=".265" stop-color="#f2f2f2"/><stop offset=".436" stop-color="#d7d9d9"/><stop offset=".539" stop-color="#cccfcf"/><stop offset=".721" stop-color="#aeb3b5"/><stop offset=".755" stop-color="#a8adaf"/><stop offset=".845" stop-color="#a1a7a9"/><stop offset=".973" stop-color="#8f979a"/><stop offset="1" stop-color="#8a9396"/></linearGradient><path d="M16.7 52.8c.4 2.3 4.2 7.4 6 9.6l.1.1c.1.1.2.3.3.4 0 0 0 .1.1.1 0 0 0 .1.1.1.1.2.1.3.1.3.9 0 3.4-.5 4.7-1 .1 0 .2-.1.2-.1h.1c.1 0 .1-.1.1-.1.5-.3.9-.9 1.2-1.6.2-.5.3-1.2.3-1.9 0-2.3-1-4.9-2.6-6.9-.9-1.1-1.9-2.1-3-2.7-.5-.3-1-.5-1.5-.6s-1-.2-1.5-.1c-.3 0-.7.1-.9.3h-.1l-.1.1c-1.5.9-3 2.7-3.3 3.2-.3.1-.3.4-.3.8z" fill="url(#SVGID_2_)"/><path class="st4" d="M18.8 52.1l2.8 2.5s3.4-1.1 4.7-2.1c.4-.3.7-.5.9-.7-.9-1.1-1.9-2.1-3-2.7-.5-.3-1-.5-1.5-.6-.6.4-1.9 1.3-2.3 1.8-.6.5-1.6 1.8-1.6 1.8z"/><path class="st4" d="M20.9 51.6c2.7 1.6 4.9 5.3 4.9 8.4s-2.2 4.3-4.9 2.8c-2.7-1.6-4.9-5.3-4.9-8.4s2.3-4.3 4.9-2.8z"/><path class="st5" d="M20.9 51.9c2.6 1.5 4.8 5.2 4.8 8.2s-2.1 4.2-4.8 2.7c-2.6-1.5-4.8-5.2-4.8-8.2.1-3 2.2-4.3 4.8-2.7z"/><linearGradient id="SVGID_3_" gradientUnits="userSpaceOnUse" x1="27.32" y1="52.103" x2="21.403" y2="62.351" gradientTransform="matrix(-1 0 0 1 45.277 0)"><stop offset="0" stop-color="#8a9396"/><stop offset=".027" stop-color="#8f979a"/><stop offset=".155" stop-color="#a1a7a9"/><stop offset=".245" stop-color="#a8adaf"/><stop offset=".28" stop-color="#aeb3b5"/><stop offset=".461" stop-color="#cccfcf"/><stop offset=".564" stop-color="#d7d9d9"/><stop offset=".735" stop-color="#f2f2f2"/><stop offset="1" stop-color="#dcdede"/></linearGradient><path d="M20.9 52.4c2.3 1.3 4.2 4.6 4.2 7.2 0 2.7-1.9 3.7-4.2 2.4s-4.2-4.6-4.2-7.2c0-2.7 1.9-3.7 4.2-2.4z" fill="url(#SVGID_3_)"/><path class="st7" d="M18.3 53.8c0 4.8 8 11.4 6.5 4.2-.1-.3-1-2.9-1.2-2.9-1-1.1-3.1-3.2-4.4-3.2-.3-.1-.5-.1-.6.2-.1.6-.2 1.1-.3 1.7z"/><path class="st8" d="M22.6 54.5c.8.5 1.4 1.6 1.4 2.5s-.6 1.3-1.4.8-1.4-1.6-1.4-2.5c0-.9.7-1.2 1.4-.8z"/><path class="st9" d="M20.8 57.1s0 .1 0 0c0 .1.1.1 0 0 .3.5 1.1.7 1.5.7.8 0 1.2.1 1.2-.7v-.3c-.1-.7-.6-1.4-1.2-1.8-.7-.4-.8-.1-1.2.5-.3.5-.4 1.3-.3 1.6z"/><linearGradient id="SVGID_4_" gradientUnits="userSpaceOnUse" x1="14.937" y1="68.692" x2="6.905" y2="82.606" gradientTransform="matrix(-1 0 0 1 45.277 0)"><stop offset="0" stop-color="#48829a"/><stop offset=".265" stop-color="#5c98ae"/><stop offset=".436" stop-color="#427d95"/><stop offset=".545" stop-color="#38728a"/><stop offset=".736" stop-color="#1d546e"/><stop offset=".755" stop-color="#1a516b"/><stop offset=".854" stop-color="#134c65"/><stop offset=".994" stop-color="#013e53"/><stop offset="1" stop-color="#003d52"/></linearGradient><path d="M22.6 73.7c.2 1.9 5.7 8.1 8.9 10 .1 0 .2.1.2.1.6.3-1.3 2.9-1 3h.1s1.3-.7 3.4-1.9c2.4-1.3-.5.4 3.1-1.8 0 0 .1 0 .1-.1 0 0 .1 0 .1-.1h.1c.1 0 .1-.1.1-.1h.1c3.6-2.2 3.4-2.2 3.9-2.6l.2-.2c.1 0 1.1-1 1.1-1 .4-.4.7-1 .9-1.7.1-.3.1-.8.1-1.4 0-.5 0-.9-.1-1.4-.3-1.6-1.1-3.3-2.2-4.7-.7-.9-1.5-1.5-2.4-2.1-.3-.1-.5-.3-.8-.4-.5-.2-1-.3-1.4-.3-.4 0-.7 0-1.3.1 0 0-1.9 0-6.1 2.1-6.7 3.5-6 3.4-6.8 3.9h-.1c-.2.2-.3.4-.2.6z" fill="url(#SVGID_4_)"/><path class="st2" d="M25.1 73l4.5 3.4 7.1-3.9 5-2.7c-.7-.9-1.6-1.7-2.5-2.3-.3-.1-.5-.3-.8-.4L32.2 69l-7.1 4z"/><linearGradient id="SVGID_5_" gradientUnits="userSpaceOnUse" x1="22.951" y1="73.44" x2="15.043" y2="87.137" gradientTransform="matrix(-1 0 0 1 45.277 0)"><stop offset="0" stop-color="#dcdede"/><stop offset=".265" stop-color="#f2f2f2"/><stop offset=".436" stop-color="#d7d9d9"/><stop offset=".539" stop-color="#cccfcf"/><stop offset=".721" stop-color="#aeb3b5"/><stop offset=".755" stop-color="#a8adaf"/><stop offset=".845" stop-color="#a1a7a9"/><stop offset=".973" stop-color="#8f979a"/><stop offset="1" stop-color="#8a9396"/></linearGradient><path d="M19.1 77.4c.4 2.3 4.2 7.4 6 9.6l.1.1c.1.1.2.3.3.4 0 0 0 .1.1.1 0 0 0 .1.1.1.1.2.1.3.1.3.9 0 3.4-.5 4.7-1 .1 0 .2-.1.2-.1h.1c.1 0 .1-.1.1-.1.5-.3.9-.9 1.2-1.6.2-.5.3-1.2.3-1.9 0-2.3-1-4.9-2.6-6.9-.9-1.1-1.9-2.1-3-2.7-.5-.3-1-.5-1.5-.6s-1-.2-1.5-.1c-.3 0-.7.1-.9.3h-.1l-.1.1c-1.5.9-3 2.7-3.3 3.2-.4.2-.4.4-.3.8z" fill="url(#SVGID_5_)"/><path class="st4" d="M21.2 76.7l2.8 2.5s3.4-1.1 4.7-2.1c.4-.3.7-.5.9-.7-.9-1.1-1.9-2.1-3-2.7-.5-.3-1-.5-1.5-.6-.6.4-1.9 1.3-2.3 1.8-.7.6-1.6 1.8-1.6 1.8z"/><path class="st4" d="M23.3 76.3c2.7 1.6 4.9 5.3 4.9 8.4S26 89 23.3 87.4s-4.9-5.3-4.9-8.4 2.2-4.3 4.9-2.7z"/><path class="st5" d="M23.3 76.5c2.6 1.5 4.8 5.2 4.8 8.2s-2.1 4.2-4.8 2.7-4.8-5.2-4.8-8.2 2.2-4.2 4.8-2.7z"/><linearGradient id="SVGID_6_" gradientUnits="userSpaceOnUse" x1="24.91" y1="76.72" x2="18.993" y2="86.968" gradientTransform="matrix(-1 0 0 1 45.277 0)"><stop offset="0" stop-color="#8a9396"/><stop offset=".027" stop-color="#8f979a"/><stop offset=".155" stop-color="#a1a7a9"/><stop offset=".245" stop-color="#a8adaf"/><stop offset=".28" stop-color="#aeb3b5"/><stop offset=".461" stop-color="#cccfcf"/><stop offset=".564" stop-color="#d7d9d9"/><stop offset=".735" stop-color="#f2f2f2"/><stop offset="1" stop-color="#dcdede"/></linearGradient><path d="M23.3 77c2.3 1.3 4.2 4.6 4.2 7.2 0 2.7-1.9 3.7-4.2 2.4-2.3-1.3-4.2-4.6-4.2-7.2s1.9-3.7 4.2-2.4z" fill="url(#SVGID_6_)"/><path class="st7" d="M20.7 78.4c0 4.7 8.1 11.4 6.6 4.3-.1-.3-1-2.9-1.2-2.9-1-1.3-2.8-2.8-4.5-2.8-.3-.1-.5-.1-.6.2l-.3 1.2z"/><path class="st8" d="M25 79.2c.8.5 1.4 1.6 1.4 2.5s-.6 1.3-1.4.8-1.4-1.6-1.4-2.5.6-1.3 1.4-.8z"/><path class="st9" d="M23.2 81.8c.3.5 1.1.7 1.5.7.8 0 1.2.1 1.2-.7v-.3c-.1-.7-.6-1.4-1.2-1.8-.7-.4-.8-.1-1.2.5-.3.5-.5 1.2-.3 1.6z"/><path d="M34.5 95.5s6.3-2.9 12.9-6.7C54 85 81 69 81 69l-.3-.6-22.6-22-.8-2.6 2.6-1.5-8.1-16.5-2.9.7-9.4-15.4 1.2-6.5L36 9.3l-5.8 6.1 4.3 80.1z" fill="#f2ece9"/><path d="M77.2 69.6c.1-.1 5.8-3.4 5.8-3.4L65.2 49.1l-8.6 5L71 72.5l6.2-2.9z" fill="#cccdbf"/><path fill="#fff5ff" d="M45 90.3L32.7 14.6l2.8-1.6 12.8 39 14.9 26.7z"/><path class="st5" d="M57.4 43.8l-8.5-17.3 3-.7L60 42.3z"/></svg>